<?xml version="1.0" encoding="UTF-8"?><svg id="uuid-8089dbd0-2fd7-4526-aaf6-69800fe58c0b" xmlns="http://www.w3.org/2000/svg" viewBox="0 0 54 54"><defs><style>.uuid-7faef541-9f59-40b0-bab7-f7e849ad6ea1{fill:white;}.uuid-6fb682b9-3ddc-4827-906e-410105cabfe2{fill:transparent;}.uuid-7ed119d0-e94a-493c-905b-864c414fbc58{fill:white;}.uuid-d6c92326-9c6c-497b-8e20-f031cbc802ed{fill:transparent;}path{fill:white}</style></defs><path class="uuid-d6c92326-9c6c-497b-8e20-f031cbc802ed" d="M27,53.99c-8.79,0-17.57,0-26.36,.01C.11,54,0,53.89,0,53.36,.02,35.79,.02,18.21,0,.64,0,.11,.11,0,.64,0,18.21,.02,35.79,.02,53.36,0c.53,0,.64,.11,.64,.64-.02,17.57-.02,35.14,0,52.71,0,.54-.11,.65-.64,.64-8.79-.02-17.57-.01-26.36-.01Z"/><path d="M50.39,18c-.39,1.79-.09,3.62-.04,5.39,.05,1.55-.43,3.11,0,4.68,.22,.79,.28,1.7-.06,2.56-.13,.34-.16,.82-.02,1.14,.51,1.2,.06,2.41,.09,3.6,.03,1.1-.03,2.22-.05,3.33-.04,1.93,.17,3.89-.28,5.77-.34,1.39-1.05,2.63-2.01,3.8-.93,1.13-2.09,1.57-3.25,2.18-.64,.34-1.26-.03-1.91,.07-1.66,.25-3.36,.25-5.04,.36-.12,0-.26,.05-.35,0-1.56-.73-3.12-.08-4.68-.03-.44,.01-.89,.1-1.3-.19-.48-.34-.77,.29-1.24,.26-2.21-.16-4.41,.32-6.63,.07-.81-.09-1.69,.25-2.53,.1-1.25-.23-2.52-.04-3.77-.08-1.74-.07-3.29-.58-4.89-1.06-.72-.21-1.36-.66-1.83-1.29-.13-.17-.24-.36-.41-.47-1.73-1.11-2.66-2.83-3.57-4.58-.69-1.32-.72-2.74-.84-4.16-.07-.8-.25-1.6-.24-2.4,.03-1.86-.65-3.7-.04-5.56,.28-.85,0-1.73-.09-2.56-.21-1.99-.13-3.97-.02-5.93,.1-1.7,.24-3.43,.35-5.13,.09-1.54,.47-3.04,.44-4.58,0-.41,.23-.76,.46-1.05,.99-1.3,1.9-2.69,3.26-3.63,.67-.47,1.52-.7,2.19-1.17,1.54-1.09,3.42-1.1,5.13-1.54,1.99-.52,4.12-.54,6.21-.32,.41,.04,.84,.08,1.24-.11,.83-.39,1.73-.09,2.5,0,1.07,.13,2.14,.02,3.15-.04,1.59-.09,3.15,.26,4.72,.11,.64-.06,1.29,0,1.94-.08,.83-.1,1.52,.47,1.6,1.11,.08,.72-.46,1.43-1.12,1.31-1.99-.37-3.99-.02-5.97-.18-1.34-.11-2.68,.13-4.06-.21-.73-.18-1.74,.02-2.61,.11-.66,.07-1.3,.05-1.95,.09-2.15,.12-4.28,.26-6.42,.61-1.56,.25-2.74,1.26-4.25,1.45-.16,.02-.33,.16-.43,.3-.67,.88-1.8,1.25-2.35,2.31-.32,.63-.82,1.11-.78,1.92,.02,.64-.34,1.24-.46,1.9-.4,2.09-.32,4.21-.52,6.3-.11,1.15-.08,2.39,.08,3.58,.04,.28-.02,.54-.17,.77-.17,.28-.19,.58-.13,.87,.37,1.67,.07,3.34,.04,5.02-.01,.63,.22,1.26,.16,1.96-.05,.57-.09,1.27,.02,1.79,.17,.77,.17,1.59,.42,2.31,.34,1,.39,2.05,.45,3.04,.06,1.12,.61,1.93,1.11,2.72,.89,1.4,2.12,2.56,3.62,3.34,.94,.49,2.01,.64,3.04,.85,1.24,.25,2.51,.02,3.78,.31,.86,.19,1.88-.36,2.88-.25,2.16,.24,4.32-.09,6.49-.07,1.11,0,2.25-.38,3.4-.29,2.08,.17,4.14-.36,6.2-.27,1.75,.07,3.43-.13,5.12-.44,2.07-.38,2.93-1.6,3.66-3.59,.63-1.72,.37-3.42,.37-5.05,0-3.3,.29-6.61,.07-9.9-.14-2.04,.04-4.06-.1-6.1-.08-1.1-.03-2.25-.08-3.36-.05-1.13,.14-2.29-.17-3.43-.23-.82,.64-1.79,1.45-1.74,.45,.03,.79,.25,.79,.69,0,.93,.43,1.81,.3,2.76Z"/><path d="M29.14,39.26c-1.29-.26-2.82-.18-4.33-.78-.98-.4-2.01-.79-3-1.21-1.12-.47-1.94-1.47-2.81-2.35-1.02-1.03-1.48-2.36-1.7-3.64-.4-2.29-.91-4.59,.2-6.97,.64-1.36,1.81-2.32,2.29-3.75,.15-.45,.72-.61,1.12-.86,1.67-1.01,3.28-2.23,5.3-2.38,1.49-.11,3.04-.43,4.42,.6,.45,.34,.8,.66,.58,1.25-.2,.56-.67,.74-1.23,.67-.32-.04-.65-.12-.96-.21-1.06-.3-2.09-.31-3.14,.13-1.35,.56-2.8,.89-3.95,1.9-.37,.32-.69,.65-.93,1.08-.58,1.05-1.22,2.07-1.7,3.17-.25,.57-.3,1.26-.3,1.9-.01,1.07,.13,2.21,.44,3.16,.43,1.3,1.18,2.54,2.22,3.57,.7,.69,1.53,.97,2.34,1.4,1.2,.63,2.48,.86,3.73,1.25,.77,.24,1.56,.04,2.21-.15,1.93-.56,3.76-1.32,5.17-2.93,1.46-1.67,2.54-4.39,1.69-6.58-.11-.28-.16-.57-.26-.85-.18-.52-.09-.98,.41-1.23,.56-.27,1.14-.1,1.42,.41,.76,1.41,1.05,2.84,.76,4.52-.19,1.14-.71,2.04-1.14,3.01-.52,1.18-1.19,2.24-2.26,3.13-1.43,1.18-3.12,1.74-4.71,2.52-.48,.23-1.11,.14-1.9,.21Z"/><path d="M40.56,20.04c-.87-.33-2.18,.16-2.98-.82-.87-1.06-1.65-2.35-1.63-3.69,.03-2.03,1.68-3.76,4.53-3.8,1.76-.03,4.08,2.12,3.99,4.3-.09,2.03-1.5,3.88-3.9,4.01Z"/><path class="uuid-7ed119d0-e94a-493c-905b-864c414fbc58" d="M42.38,8.17c-.35-.04-.72-.04-1.06-.13-.56-.15-.98-.49-.93-1.14,.05-.65,.55-1.06,1.07-1,1.78,.19,3.64-.13,5.33,.61,1.86,.81,2.98,2.68,2.73,4.75-.05,.44-.3,.72-.72,.81-.53,.1-1.02-.01-1.37-.45-.26-.33-.38-.74-.44-1.16-.24-1.66-.43-1.99-2.01-2.08-.87-.05-1.73-.15-2.6-.2Z"/><path class="uuid-7faef541-9f59-40b0-bab7-f7e849ad6ea1" d="M33.31,19.29c1.15,.08,1.91,.75,2.59,1.52,.23,.26,.44,.56,.63,.86,.37,.6,.34,1.2-.14,1.73-.5,.55-.97,.32-1.49-.04-.86-.59-1.35-1.56-2.32-2.04-.44-.22-.5-.85-.3-1.38,.19-.49,.61-.61,1.03-.64Z"/><path class="uuid-6fb682b9-3ddc-4827-906e-410105cabfe2" d="M40.12,14.05c1.09,0,2.21,.92,2.23,1.86,.03,1.05-1.12,2.06-2.31,2.03-.8-.02-1.88-1.31-1.85-2.21,.03-.93,.88-1.67,1.93-1.68Z"/></svg>