<?xml version="1.0" encoding="UTF-8"?><svg id="uuid-bc64b339-b694-4396-ac5f-70c324a157d2" xmlns="http://www.w3.org/2000/svg" viewBox="0 0 54 54"><style>path{fill:white}</style><path d="M47.39,21.46c-.31,1.98,.18,4.1-.62,5.97-.6,1.4-.72,2.95-1.43,4.26-.81,1.49-1.54,3.01-2.57,4.39-.72,.97-1.35,2.1-2.23,2.83-1.46,1.21-2.4,2.89-4.04,3.94-1.14,.73-2.34,1.35-3.48,2.08-1.17,.75-2.52,1.04-3.83,1.41-1.21,.34-2.44,.64-3.68,.9-.65,.14-1.33,.2-2,.21-1.46,.02-2.91,.05-4.37,.09-1.31,.04-2.63-.3-3.95-.42-1.24-.11-2.4-.54-3.56-.87-1.85-.52-3.81-1.01-5.04-2.78-.37-.53-.63-.98-.1-1.49,.5-.48,1.09-.48,1.61-.02,2.05,1.78,4.5,2.55,7.13,2.91,.99,.13,1.98,.45,2.97,.47,1.95,.05,3.9,0,5.84-.08,1.63-.06,3.28-.28,4.76-.93,1.27-.55,2.77-.57,3.83-1.65,.29-.3,.79-.4,1.19-.59,.21-.1,.49-.14,.64-.3,1.46-1.55,3.18-2.83,4.56-4.46,.74-.87,1.72-1.64,2.14-2.64,.41-.95,1.45-1.51,1.47-2.64,0-.34,.25-.6,.46-.86,.48-.6,.78-1.27,.81-2.04,.03-.7,.48-1.26,.69-1.88,.28-.81,.23-1.74,.26-2.62,.02-.72,0-1.42,.27-2.12,.21-.53-.15-1.08-.17-1.65-.02-.78,.24-1.21,1-1.31,.75-.1,1.33,.39,1.41,1.16,.02,.24,0,.48,0,.72Z"/><path d="M26.43,23.1c-1.15-.59-2.68-.17-3.82-1.2-.33-.3-.82-.09-1.2-.28-1.66-.85-3.31-1.73-5-2.52-1.56-.72-2.67-2.07-4.13-2.92-.22-.13-.43-.34-.57-.56-.36-.56-.81-.98-1.34-1.39-.9-.7-1.32-1.74-1.42-2.89-.04-.47,.18-.8,.63-.97,.43-.16,.83-.14,1.15,.21,.2,.22,.42,.44,.54,.71,.79,1.7,2.31,2.67,3.61,3.9,1.59,1.52,3.65,2.14,5.34,3.39,1.52,1.12,3.27,1.46,5.04,1.79,.46,.09,.86,.73,1.27,.39,.21-.18-.1-.89,.04-1.27,.59-1.59,.24-3.4,1.17-4.89,.53-.85,1.12-1.66,1.69-2.48,1.09-1.58,2.63-2.46,4.42-3.11,1.01-.37,2.07-.5,2.99-.42,1.19,.11,2.62-.25,3.61,.95,.3,.36,.85,.54,1.31,.74,.87,.38,1.25,1.17,1.63,1.93,.19,.36-.01,.74-.33,1.04-.34,.31-.69,.35-1.06,.14-.31-.18-.66-.35-.87-.61-1.11-1.41-2.67-1.96-4.35-2.12-.64-.06-1.38,.19-2.04,.36-1.56,.41-2.99,1.17-3.77,2.67-.7,1.34-1.53,2.61-1.78,4.18-.21,1.28-.32,2.5-.01,3.78,.14,.6-.31,1.04-.86,1.2-.57,.16-1.17,.18-1.89,.27Z"/><path d="M12.37,31.83c.21,.22,.41,.47,.44,.77,.12,1.51,1.26,2.2,2.38,2.76,.81,.4,1.38,1.12,2.32,1.4,.64,.19,1.22,.39,1.87,.28,.27-.04,.52-.12,.77,.03,.44,.27,1.14,.34,1.13,1.01-.01,.74-.41,1.39-.99,1.82-.9,.68-1.88,1.25-2.82,1.89-.72,.49-1.63,.37-2.4,.8-.38,.21-.9-.22-1.09-.71-.2-.54,.07-.93,.53-1.19,.77-.43,1.68-.56,2.39-1.12,.11-.09,.27-.14,.28-.38-.95-.54-2.06-.82-2.97-1.5-1.13-.84-2.54-1.38-3.14-2.79-.32-.74-.31-1.6-.16-2.36,.14-.7,.87-.7,1.49-.68l-.02-.02Z"/><path d="M8.14,23.71c0-.31,.08-.71,.38-.83,1.05-.44,.42-1.04,.12-1.47-.79-1.14-1.09-2.44-1.24-3.76-.09-.79,.66-.99,1.29-1.09,.59-.09,1.05,.16,1.06,.79,.02,.88,.38,1.68,.63,2.47,.17,.54,.62,1.12,1.01,1.61,.43,.54,.63,1.38,1.53,1.47,.11,.01,.22,.19,.29,.32,.41,.72-.44,2.65-1.25,2.82-.09,.02-.2,.05-.26,0-.87-.55-1.93-.53-2.84-.95-.57-.26-.64-.82-.72-1.4Z"/><path d="M12.39,31.85c-.85-1.03-2.1-1.63-2.89-2.73-.41-.58-.58-1.18-.07-1.7,.54-.56,1.22-.5,1.72,.1,.72,.87,1.83,1.29,2.46,2.24,.19,.28,.47,.22,.72,.28,1.03,.25,1.74,.88,2.17,1.83,.39,.86-.3,1.82-1.23,1.72-.78-.08-1.62-.01-1.75-1.2-.05-.43-.72-.41-1.13-.56l.02,.02Z"/><path d="M46.08,14.61c-.58,.07-1.12,.04-1.36-.59-.23-.62,.12-1.05,.6-1.36,.99-.65,1.93-1.38,3.07-1.76,.5-.16,1.04-.29,1.37,.25,.34,.56,.09,1.15-.39,1.41-1.15,.61-1.82,2-3.29,2.05Z"/><path d="M47.34,17.98c-.7,0-1.16-.13-1.36-.65-.21-.56,.13-.88,.54-1.27,.64-.61,1.42-.85,2.18-1.15,.68-.27,1.35-.12,1.7,.54,.36,.68-.14,1.14-.68,1.43-.82,.44-1.63,.9-2.37,1.1Z"/></svg>