<?xml version="1.0" encoding="UTF-8"?><svg id="uuid-df6c871f-7b93-4f9c-ad08-03c46296d98a" xmlns="http://www.w3.org/2000/svg" viewBox="0 0 54 54"><defs><style>.uuid-763bf6de-6e71-4b20-9580-51e18a787d3d{fill:none;stroke:white;stroke-linecap:round;stroke-linejoin:round;stroke-width:2px;}</style></defs><path class="uuid-763bf6de-6e71-4b20-9580-51e18a787d3d" d="M6.01,33.03h.93c.5,2.84,1.99,5.09,3.61,7.31,1.36,1.87,3.05,3.4,4.82,4.79,1.39,1.09,3.04,1.89,4.71,2.59,2.44,1.02,4.97,1.13,7.54,1.16,.51,0,1-.15,1.42-.31,1.34-.51,2.82-.56,4.06-1.38,.72-.48,1.62-.68,2.5-.79"/><path class="uuid-763bf6de-6e71-4b20-9580-51e18a787d3d" d="M39.33,18.18c-.24,.9-.31,1.83-.66,2.7-.32,.8-.01,1.63,.11,2.42,.2,1.26,.25,2.52,.24,3.78-.01,1.56-.39,3.06-.64,4.59-.17,1.02,.48,1.79,.68,2.69,.27,1.17,.27,2.35,.39,3.52,.12,1.14,1.34,3.01,2.35,3.32,.64,.2,1.31,.18,1.88-.19,1.34-.86,2.43-1.97,3.14-3.41,.46-.94,1.01-1.88,1.23-2.88,.41-1.91,.98-3.78,1.13-5.75,.15-1.93,.08-3.85-.07-5.76-.12-1.57-.29-3.17-.9-4.7-.89-2.22-2.2-4.09-3.78-5.86-.98-1.1-2.21-1.81-3.31-2.71-1.77-1.44-3.84-2.24-5.88-3.07-1.85-.75-3.88-.93-5.9-1.07-1.86-.13-3.69-.01-5.46,.43-1.86,.46-3.72,.91-5.5,1.72-1.68,.77-3.26,1.6-4.55,2.92-.84,.86-1.91,1.54-2.49,2.62-.75,1.39-2.03,2.48-2.38,4.12-.1,.46-.7,.81-.84,1.28-.23,.77-.33,1.59-.66,2.33-.5,1.12-.7,2.35-.75,3.52-.09,1.85-.65,3.68-.03,5.6,.25,.78,.6,1.75,.25,2.68"/><path class="uuid-763bf6de-6e71-4b20-9580-51e18a787d3d" d="M38.3,32.67c-.83,.26-1.33,.91-1.69,1.63-.75,1.49-1.81,2.64-3.24,3.52-1.22,.75-2.45,1.47-3.87,1.68-1.42,.21-2.83,.38-4.32,.09-1.01-.2-2.02-.47-2.92-.85-.99-.41-1.85-1.22-2.53-2.11-1.46-1.91-2.67-3.95-3.06-6.38-.27-1.65-.41-3.31-.15-4.95,.16-1.02,.79-1.94,.95-2.98,.17-1.16,1-1.9,1.62-2.79,.78-1.13,1.8-1.99,2.99-2.57,.82-.4,1.57-1.13,2.68-.89,.45,.1,1-.29,1.52-.4,1.5-.33,3,.03,4.37,.43,1.33,.39,2.7,.86,3.85,1.93,.96,.89,1.94,1.77,2.91,2.66,.27,.25,.7,.31,1.06,.46"/></svg>